<svg id="svg" xmlns="http://www.w3.org/2000/svg" xmlns:xlink="http://www.w3.org/1999/xlink" width="400" height="400" viewBox="0, 0, 400,400"><g id="svgg"><path id="path0" d="M150.537 8.102 C 132.891 25.165,118.416 30.617,99.632 27.277 C 85.507 24.765,73.620 16.540,73.620 9.280 L 73.620 6.380 47.853 6.380 L 22.086 6.380 22.086 59.387 L 22.086 112.393 47.853 112.393 L 73.620 112.393 73.620 109.695 C 73.620 102.522,88.949 92.017,103.009 89.555 C 130.739 84.698,153.529 98.237,162.432 124.854 L 164.256 130.307 167.772 130.451 L 171.288 130.595 171.288 240.512 L 171.288 350.429 160.838 350.429 L 150.388 350.429 148.374 352.515 C 141.799 359.325,141.390 373.193,147.134 394.601 L 148.517 399.755 197.876 399.880 L 247.235 400.005 248.727 394.235 C 253.693 375.031,254.071 363.282,249.966 355.740 C 247.292 350.827,246.965 350.712,234.971 350.429 L 224.540 350.184 224.416 240.368 L 224.292 130.552 227.931 130.552 L 231.570 130.552 231.914 128.466 C 236.791 98.897,253.894 83.206,281.227 83.226 C 310.300 83.247,332.889 96.762,369.380 135.967 C 373.895 140.817,377.788 144.785,378.032 144.785 C 378.583 144.785,394.513 134.208,395.749 133.022 C 396.621 132.185,396.514 131.874,392.516 123.624 C 362.838 62.390,312.048 20.132,248.991 4.207 L 243.994 2.945 199.911 2.965 L 155.828 2.985 150.537 8.102 " stroke="none" fill="#000000" fill-rule="evenodd"></path></g></svg>